<?xml version="1.0" encoding="UTF-8"?>
<!-- Generated by Pixelmator Pro 3.5.7 -->
<svg width="20" height="20" viewBox="0 0 20 20" xmlns="http://www.w3.org/2000/svg">
    <path id="path1" fill="none" stroke="#000000" stroke-width="2" stroke-linecap="round" stroke-linejoin="round" d="M 1 1 L 1 4 M 19 1 L 19 4 M 19 4 L 19 8 C 19 9.1046 18.104601 10 17 10 L 7 10 M 19 4 L 7 4 M 1 4 L 1 8 C 1 9.1046 1.89543 10 3 10 L 7 10 M 1 4 L 7 4 M 7 1 L 7 4 M 7 4 L 7 10 M 13 1 L 13 4 L 13 10"/>
    <path id="path2" fill="none" stroke="#ff0000" stroke-width="2" stroke-linecap="round" stroke-linejoin="round" d="M 7 13 L 10 16 M 10 16 L 13 19 M 10 16 L 13 13 M 10 16 L 7 19"/>
</svg>
