<?xml version="1.0" encoding="UTF-8"?>
<!-- Generated by Pixelmator Pro 3.5.7 -->
<svg width="24" height="24" viewBox="0 0 24 24" xmlns="http://www.w3.org/2000/svg">
    <path id="path1" fill="#212121" stroke="none" d="M 8.666667 24 L 15.333333 24 L 15.333333 17.333334 L 8.666667 17.333334 L 8.666667 24 Z M 17.333334 24 L 19.666666 24 C 22.0599 24 24 22.0599 24 19.666666 L 24 17.333334 L 17.333334 17.333334 L 17.333334 24 Z M 24 15.333333 L 24 8.666667 L 17.333334 8.666667 L 17.333334 15.333333 L 24 15.333333 Z M 24 6.666666 L 24 4.333334 C 24 1.9401 22.0599 0 19.666666 0 L 17.333334 0 L 17.333334 6.666666 L 24 6.666666 Z M 15.333333 0 L 8.666667 0 L 8.666667 6.666666 L 15.333333 6.666666 L 15.333333 0 Z M 6.666667 0 L 4.333333 0 C 1.9401 0 0 1.9401 0 4.333334 L 0 6.666666 L 6.666667 6.666666 L 6.666667 0 Z M 0 8.666667 L 0 15.333333 L 6.666667 15.333333 L 6.666667 8.666667 L 0 8.666667 Z M 0 17.333334 L 0 19.666666 C 0 22.0599 1.9401 24 4.333333 24 L 6.666667 24 L 6.666667 17.333334 L 0 17.333334 Z M 15.333333 8.666667 L 15.333333 15.333333 L 8.666667 15.333333 L 8.666667 8.666667 L 15.333333 8.666667 Z"/>
</svg>
