<?xml version="1.0" encoding="UTF-8"?>
<!-- Generated by Pixelmator Pro 3.5.7 -->
<svg width="24" height="24" viewBox="0 0 24 24" xmlns="http://www.w3.org/2000/svg">
    <path id="path1" fill="#212121" stroke="none" d="M 4.333333 0 C 1.9401 0 0 1.9401 0 4.333334 L 0 19.666666 C 0 22.0599 1.9401 24 4.333333 24 L 19.666666 24 C 22.0599 24 24 22.0599 24 19.666666 L 24 4.333334 C 24 1.9401 22.0599 0 19.666666 0 L 4.333333 0 Z M 2 4.333334 C 2 3.045334 3.045333 2 4.333333 2 L 10.666667 2 L 10.666667 6 L 2 6 L 2 4.333334 Z M 12.666667 18 L 22 18 L 22 19.666666 C 22 20.95533 20.95533 22 19.666666 22 L 12.666667 22 L 12.666667 18 Z M 22 6 L 12.666667 6 L 12.666667 2 L 19.666666 2 C 20.954666 2 22 3.045334 22 4.333334 L 22 6 Z M 10.666667 18 L 10.666667 22 L 4.333333 22 C 3.044669 22 2 20.95533 2 19.666666 L 2 18 L 10.666667 18 Z M 2 8 L 22 8 L 22 16 L 2 16 L 2 8 Z"/>
</svg>
